<?xml version="1.0" encoding="UTF-8"?>
<svg id="Capa_1" data-name="Capa 1" xmlns="http://www.w3.org/2000/svg" viewBox="0 0 128 128">
  <g>
    <path d="M47.64,63.34h16.22v21.14c-2.03,1.31-4.69,2.39-7.96,3.24-3.28.85-6.88,1.28-10.82,1.28-4.46,0-8.47-.82-12.05-2.45-3.57-1.64-6.6-3.83-9.1-6.58-2.49-2.75-4.41-5.96-5.75-9.62-1.34-3.66-2.02-7.53-2.02-11.58,0-.67.03-1.33.06-2h-7.49c-.03.64-.04,1.29-.04,1.95,0,5.31.9,10.19,2.7,14.65,1.8,4.46,4.31,8.31,7.52,11.55,3.21,3.24,7.05,5.79,11.5,7.62,4.46,1.83,9.31,2.75,14.55,2.75,4.72,0,9.28-.56,13.67-1.68,4.39-1.12,8.49-2.83,12.29-5.13v-31.45h-23.3v6.29Z"/>
    <path d="M20.89,41.61c.9-1.46,1.91-2.83,3.06-4.1,2.49-2.78,5.52-4.99,9.1-6.63,3.57-1.64,7.59-2.46,12.05-2.46s8.16.7,11.5,2.11c3.34,1.41,6.23,3.39,8.65,5.95l4.92-4.92c-2.95-2.96-6.49-5.28-10.62-6.94-4.13-1.67-8.98-2.5-14.55-2.5-5.18,0-9.98.92-14.41,2.75-4.42,1.84-8.26,4.38-11.5,7.62-2.63,2.63-4.79,5.67-6.5,9.1h8.31Z"/>
  </g>
  <g>
    <polygon points="77.31 56.77 77.31 93.52 84.39 93.52 84.39 60.58 84.39 56.77 77.31 56.77"/>
    <polygon points="77.31 23.91 77.31 41.61 84.39 41.61 84.39 30.52 84.39 30.2 119.3 30.2 119.3 23.91 77.31 23.91"/>
  </g>
  <g>
    <path d="M10,48.08v5.58h-1.25v-7.92h.98l4.53,5.71v-5.7h1.26v7.91h-1.04l-4.48-5.58Z"/>
    <path d="M25.63,52.59c.42,0,.76-.08,1.04-.25.28-.16.5-.38.66-.64.17-.26.29-.57.36-.9.07-.34.11-.69.11-1.04v-4.02h1.26v4.02c0,.54-.06,1.05-.19,1.53-.13.48-.33.9-.6,1.26-.28.36-.63.65-1.07.85-.44.21-.96.31-1.57.31s-1.17-.11-1.6-.33c-.44-.22-.79-.51-1.05-.88-.27-.37-.46-.79-.58-1.27-.12-.48-.18-.97-.18-1.48v-4.02h1.25v4.02c0,.36.04.72.11,1.05.07.34.19.64.36.9.17.26.39.48.67.64.28.16.62.24,1.03.24Z"/>
    <path d="M41.55,46.84h-2.63v6.82h-1.26v-6.82h-2.64v-1.1h6.54v1.1Z"/>
    <path d="M47.63,53.66v-7.92h3.45c.36,0,.69.07.99.22.3.15.56.34.78.59.22.24.38.52.51.83.12.31.18.62.18.94,0,.27-.04.52-.11.77-.07.25-.18.47-.31.68-.13.21-.3.39-.49.54-.19.15-.41.27-.64.34l1.86,3.01h-1.42l-1.72-2.76h-1.83v2.76h-1.25ZM48.88,49.8h2.19c.18,0,.34-.04.49-.12s.27-.19.37-.32c.1-.14.19-.3.25-.47.06-.18.09-.37.09-.57s-.04-.39-.11-.57c-.07-.18-.16-.33-.28-.47-.12-.13-.25-.24-.4-.32-.15-.08-.31-.12-.47-.12h-2.12v2.96Z"/>
    <path d="M60.02,53.66v-7.92h1.25v7.92h-1.25Z"/>
    <path d="M67.57,49.64c0-.48.09-.95.26-1.42.17-.47.42-.9.75-1.27.33-.38.73-.68,1.21-.91.48-.23,1.02-.35,1.62-.35.72,0,1.34.16,1.85.48.51.32.9.74,1.16,1.25l-.98.66c-.11-.24-.25-.44-.4-.6-.16-.16-.33-.29-.51-.39-.19-.1-.38-.17-.58-.21-.2-.04-.39-.06-.58-.06-.42,0-.78.08-1.09.25-.31.17-.57.39-.79.66-.21.28-.37.58-.48.93-.11.34-.16.68-.16,1.03,0,.39.06.75.19,1.1.13.35.3.66.53.93.23.27.5.48.81.64.31.16.65.24,1.03.24.19,0,.39-.02.6-.07.2-.05.4-.13.59-.23.19-.11.36-.24.52-.41.16-.16.29-.36.4-.59l1.04.59c-.13.3-.31.56-.54.79-.23.23-.49.42-.78.57s-.6.28-.92.36c-.32.08-.64.12-.95.12-.56,0-1.07-.12-1.53-.36-.46-.24-.86-.55-1.19-.93-.33-.38-.6-.82-.78-1.31-.19-.49-.28-.98-.28-1.49Z"/>
    <path d="M80.72,53.66v-7.92h1.25v7.92h-1.25Z"/>
    <path d="M92.07,53.71c-.57,0-1.08-.11-1.54-.34-.46-.23-.86-.53-1.2-.9-.33-.38-.59-.8-.78-1.29-.18-.48-.27-.98-.27-1.48s.1-1.03.29-1.52c.19-.48.46-.91.8-1.28.34-.37.74-.67,1.2-.89.46-.22.97-.33,1.52-.33s1.08.12,1.54.35.86.54,1.19.92c.33.38.59.81.77,1.29.18.48.27.97.27,1.47,0,.53-.09,1.03-.28,1.52-.19.48-.46.91-.8,1.28-.34.37-.75.66-1.21.88-.46.22-.97.33-1.51.33ZM89.55,49.7c0,.37.06.73.18,1.08.12.35.29.66.51.93.22.27.49.48.8.64.31.16.66.24,1.05.24s.76-.08,1.07-.25c.31-.17.57-.39.79-.66.22-.28.38-.58.49-.93.11-.34.17-.69.17-1.05,0-.38-.06-.74-.18-1.09s-.29-.65-.51-.91c-.22-.26-.48-.48-.79-.64-.31-.16-.65-.24-1.03-.24-.4,0-.76.08-1.07.25-.31.17-.58.38-.79.65-.22.27-.38.57-.5.92-.12.35-.17.7-.17,1.05ZM92.38,44.91l-.8-.25.64-1.23h1.17l-1,1.47Z"/>
    <path d="M103.43,48.08v5.58h-1.25v-7.92h.98l4.53,5.71v-5.7h1.26v7.91h-1.04l-4.48-5.58Z"/>
  </g>
  <g>
    <path d="M13.12,105.1c-.48.51-1.04.77-1.67.77-.35,0-.68-.07-.97-.22-.3-.15-.55-.34-.77-.58-.22-.24-.39-.51-.51-.81-.12-.3-.18-.61-.18-.93s.06-.65.18-.96c.12-.31.29-.57.5-.81.22-.23.47-.42.76-.56.29-.14.61-.21.96-.21.25,0,.49.03.7.08.21.05.4.13.56.23.16.1.31.21.43.35.12.13.22.28.3.44l-.4.25c-.17-.31-.39-.54-.67-.68-.27-.15-.58-.22-.93-.22-.29,0-.55.06-.78.18-.23.12-.43.27-.59.47-.16.19-.29.42-.38.67-.09.25-.13.51-.13.78,0,.28.05.55.15.8.1.25.24.48.41.67.18.19.38.34.62.45.24.11.5.17.77.17.3,0,.58-.07.85-.2.27-.13.53-.35.78-.64v-.83h-1.16v-.38h1.59v2.46h-.43v-.73Z"/>
    <path d="M21.11,105.86c-.36,0-.69-.07-.99-.21-.3-.14-.56-.33-.77-.57-.22-.24-.38-.51-.5-.81-.12-.31-.18-.62-.18-.94s.06-.65.19-.96c.12-.31.3-.58.52-.81.22-.23.48-.42.78-.56.3-.14.62-.21.97-.21s.69.07.99.22c.3.15.56.34.77.58s.38.51.5.81.18.61.18.93c0,.33-.06.65-.19.96-.12.31-.3.57-.51.81-.22.23-.48.42-.77.56-.3.14-.62.21-.97.21ZM19.18,103.33c0,.27.05.53.14.79.09.25.22.47.4.67.17.2.37.35.61.47.23.12.5.17.79.17s.56-.06.8-.18c.24-.12.44-.28.61-.48.17-.2.29-.42.39-.67.09-.25.14-.5.14-.76,0-.27-.05-.53-.14-.79-.1-.25-.23-.47-.4-.67-.17-.19-.37-.35-.61-.46s-.49-.17-.78-.17-.56.06-.8.18c-.24.12-.44.28-.61.48-.17.2-.29.42-.39.67-.09.25-.14.5-.14.76Z"/>
    <path d="M28.93,105.83v-5h2.2c.22,0,.43.05.62.14.19.09.35.21.49.36.14.15.24.32.32.5.08.19.11.38.11.57s-.03.36-.08.53c-.06.17-.13.32-.23.45-.1.13-.22.25-.36.34-.14.09-.3.15-.48.19l1.28,1.93h-.58l-1.23-1.85h-1.54v1.85h-.51ZM29.44,103.55h1.7c.15,0,.29-.03.41-.1.12-.06.23-.15.32-.26.09-.11.16-.23.21-.37.05-.14.07-.28.07-.43s-.03-.29-.08-.43c-.06-.14-.13-.26-.23-.36-.1-.1-.21-.19-.34-.25-.13-.06-.27-.09-.41-.09h-1.66v2.28Z"/>
    <path d="M38.12,105.83v-5h.51v2.9l2.87-2.91h.57l-2.13,2.2,2.24,2.8h-.57l-2-2.52-.98.98v1.54h-.51Z"/>
    <path d="M48.86,100.83h.43l2.16,5h-.54l-.68-1.56h-2.34l-.67,1.56h-.55l2.18-5ZM50.12,103.88l-1.05-2.47-1.06,2.47h2.11Z"/>
    <path d="M62.65,105.83v-5h3.42v.44h-2.91v1.84h2.45v.41h-2.45v2.32h-.51Z"/>
    <path d="M71.38,105.83v-5h.51v5h-.51Z"/>
    <path d="M77.6,105.83v-5h1.77c.42,0,.78.07,1.09.2.31.13.57.31.78.54.21.23.36.49.47.79.11.3.16.63.16.97,0,.38-.06.72-.18,1.03-.12.31-.29.57-.5.79-.22.22-.48.39-.79.51-.31.12-.65.18-1.03.18h-1.77ZM81.35,103.32c0-.3-.04-.58-.13-.83-.09-.25-.22-.47-.39-.65s-.38-.33-.62-.43c-.24-.1-.53-.15-.84-.15h-1.25v4.13h1.25c.32,0,.61-.05.85-.16.25-.11.45-.25.62-.44.17-.19.29-.4.38-.66.09-.25.13-.53.13-.82Z"/>
    <path d="M88.68,100.83h.43l2.16,5h-.54l-.68-1.56h-2.34l-.67,1.56h-.55l2.18-5ZM89.94,103.88l-1.05-2.47-1.06,2.47h2.11Z"/>
    <path d="M96.43,105.83v-5h.51v4.57h3.01v.44h-3.52Z"/>
    <path d="M108.55,105.1c-.48.51-1.04.77-1.67.77-.35,0-.68-.07-.97-.22-.3-.15-.55-.34-.77-.58s-.39-.51-.51-.81c-.12-.3-.18-.61-.18-.93s.06-.65.18-.96c.12-.31.29-.57.5-.81.22-.23.47-.42.76-.56.29-.14.61-.21.96-.21.25,0,.49.03.7.08.21.05.4.13.56.23.16.1.31.21.43.35.12.13.22.28.3.44l-.4.25c-.17-.31-.39-.54-.67-.68-.27-.15-.58-.22-.93-.22-.29,0-.55.06-.78.18-.23.12-.43.27-.59.47-.16.19-.29.42-.38.67-.09.25-.13.51-.13.78,0,.28.05.55.15.8.1.25.24.48.41.67s.38.34.62.45c.24.11.5.17.77.17.3,0,.58-.07.85-.2.27-.13.53-.35.78-.64v-.83h-1.16v-.38h1.59v2.46h-.43v-.73Z"/>
    <path d="M116.54,105.86c-.36,0-.69-.07-.99-.21-.3-.14-.56-.33-.77-.57-.22-.24-.38-.51-.5-.81-.12-.31-.18-.62-.18-.94s.06-.65.19-.96c.12-.31.3-.58.52-.81.22-.23.48-.42.78-.56.3-.14.62-.21.97-.21s.69.07.99.22c.3.15.56.34.77.58s.38.51.5.81c.12.3.18.61.18.93,0,.33-.06.65-.19.96-.12.31-.3.57-.51.81s-.48.42-.77.56c-.3.14-.62.21-.97.21ZM114.61,103.33c0,.27.05.53.14.79.09.25.22.47.4.67.17.2.37.35.61.47.23.12.5.17.79.17s.56-.06.8-.18c.24-.12.44-.28.61-.48.17-.2.29-.42.39-.67.09-.25.14-.5.14-.76,0-.27-.05-.53-.14-.79-.1-.25-.23-.47-.4-.67-.17-.19-.37-.35-.61-.46s-.49-.17-.78-.17-.56.06-.8.18-.44.28-.61.48c-.17.2-.29.42-.39.67-.09.25-.14.5-.14.76Z"/>
  </g>
</svg>